<svg style="fill-rule:evenodd;clip-rule:evenodd;stroke-linejoin:round;stroke-miterlimit:2;" xml:space="preserve" xmlns:xlink="http://www.w3.org/1999/xlink" xmlns="http://www.w3.org/2000/svg" version="1.1" viewBox="0 0 449 135" height="100%" width="100%">
    <g transform="matrix(1.24176,0,0,1.24177,-44.0328,1.42109e-14)">
        <g id="Asset-4.svg">
            <g>
                <g id="Layer_1-2">
                    <g transform="matrix(1,0,0,1,35.47,0)">
                        <path style="fill:rgb(36,32,31);fill-rule:nonzero;" d="M12.19,98.61L6.75,107.23L5.29,107.23L5.29,20.15C5.29,12.33 3.3,11 -0.01,9.55L-0.01,7.7L17.5,0L18.82,1.06L18.82,47.85C25.45,43.61 33.27,40.03 40.82,40.03C59.64,40.03 71.04,55.54 71.04,71.97C71.04,92.25 57.12,108.42 35.12,108.42C25.58,108.42 17.09,104.18 12.19,98.61ZM40.29,105.64C54.34,105.64 58.05,94.11 58.05,82.05C58.05,69.99 52.49,45.33 32.73,45.33C27.83,45.33 23.19,47.19 18.82,49.97L18.82,83.9C18.82,94.24 30.22,105.64 40.29,105.64Z"></path>
                        <path style="fill:rgb(36,32,31);fill-rule:nonzero;" d="M79.11,105.37C83.49,103.91 84.41,99.93 84.41,90.39L84.41,20.15C84.41,12.33 82.42,11 79.11,9.55L79.11,7.7L96.61,0L97.93,1.06L97.93,90.39C97.93,99.93 98.86,103.91 103.23,105.37L103.23,107.22L79.11,107.22L79.11,105.37Z"></path>
                        <path style="fill:rgb(36,32,31);fill-rule:nonzero;" d="M242.8,105.23C247.27,103.7 248.21,99.55 248.21,89.59L248.21,57.75C248.21,49.58 246.18,48.2 242.8,46.68L242.8,44.74L260.67,36.71L262.02,37.82L262.02,49.45C269.47,43.22 279.22,36.99 289.78,36.99C299.26,36.99 305.49,40.73 308.06,49.59C315.51,43.36 325.39,36.99 336.09,36.99C348.55,36.99 355.59,43.64 355.59,59.83L355.59,89.59C355.59,99.56 356.54,103.71 361,105.23L361,107.17L336.36,107.17L336.36,105.23C340.83,103.7 341.78,99.55 341.78,89.59L341.78,62.32C341.78,49.86 337.85,42.52 327.83,42.52C321.47,42.52 315.65,45.71 308.47,51.52C309.01,54.01 309.28,56.78 309.28,59.83L309.28,89.59C309.28,99.56 310.23,103.71 314.7,105.23L314.7,107.17L290.06,107.17L290.06,105.23C294.53,103.7 295.48,99.55 295.48,89.59L295.48,62.32C295.48,49.86 291.55,42.52 281.53,42.52C275.17,42.52 269.35,45.71 262.03,51.8L262.03,89.59C262.03,99.56 262.98,103.71 267.45,105.23L267.45,107.17L242.81,107.17L242.81,105.23L242.8,105.23Z"></path>
                    </g>
                    <g transform="matrix(1,0,0,1,35.47,0)">
                        <g>
                            <clipPath id="_clip1">
                                <rect height="66.97" width="139.968" y="41.57" x="111.409"></rect>
                            </clipPath>
                            <g clip-path="url(#_clip1)">
                                <path style="fill:rgb(36,32,31);fill-rule:nonzero;" d="M233.79,47.03C234.98,45.21 234.32,43.92 232.2,43.92L223.72,43.79C222.26,43.79 221.34,44.44 220.67,45.61L214.31,56.12C205.3,68.58 196.02,80.26 188.33,88.17C181.04,95.83 175.47,100.11 171.63,100.11C170.64,100.11 169.88,99.84 169.27,99.45C168.54,98.8 168.15,97.79 168.15,96.48C168.15,90.9 171.73,83.5 176.1,74.81C180.87,65.86 187.1,56.12 192.8,47.03C193.99,45.21 193.33,43.92 191.21,43.92L182.73,43.79C181.27,43.79 180.35,44.44 179.68,45.61L173.32,56.12C164.31,68.58 155.03,80.26 147.34,88.17C140.05,95.83 134.48,100.11 130.64,100.11C127.85,100.11 126.53,98.29 126.53,96.21C126.53,86.61 149.46,60.78 149.46,48.32C149.46,45.2 147.61,41.57 142.3,41.57C137.39,41.57 129.71,45.59 118.71,55.59L119.9,56.89C125.34,51.96 129.98,49.23 132.49,49.23C134.87,49.23 135.4,50.53 135.4,52.08C135.4,61.42 111.28,88.81 111.41,99.84C111.41,105.16 116.71,108.54 120.96,108.54C128.11,108.54 137.93,100.88 148.79,89.2C153.96,83.75 159.26,77.52 164.56,70.77C158.59,81.54 153.95,92.06 153.95,100.36C153.95,103.59 155.67,108.5 161.97,108.53L162.03,108.53C162.33,108.53 162.65,108.5 162.98,108.46C170.03,107.77 179.41,100.31 189.76,89.19C194.93,83.74 200.23,77.51 205.53,70.76C199.56,81.53 194.92,92.05 194.92,100.35C194.92,103.59 196.65,108.53 203.01,108.53C207.12,108.53 214.41,104.51 225.41,94.51L224.22,93.21C219.71,97.36 215.47,100.22 212.56,100.22C210.3,100.22 209.11,98.79 209.11,96.45C209.11,90.87 212.69,83.47 217.06,74.78C221.83,65.83 228.06,56.09 233.76,47L233.79,47.03Z"></path>
                            </g>
                        </g>
                    </g>
                </g>
            </g>
        </g>
    </g>
</svg>
