<?xml version="1.0" encoding="UTF-8" standalone="no"?>
<!DOCTYPE svg PUBLIC "-//W3C//DTD SVG 1.1//EN" "http://www.w3.org/Graphics/SVG/1.1/DTD/svg11.dtd">
<svg viewBox="0 0 1024 1024" version="1.1" xmlns="http://www.w3.org/2000/svg" xmlns:xlink="http://www.w3.org/1999/xlink" xml:space="preserve" xmlns:serif="http://www.serif.com/" style="fill-rule:evenodd;clip-rule:evenodd;stroke-linejoin:round;stroke-miterlimit:2;">
    <path d="M956.275,804.484L639.995,277.472L639.995,64.018L672.004,64.018C689.595,64.018 704.013,49.621 704.013,32.009C704.013,14.397 689.616,-0 672.004,-0L352.017,-0C334.425,-0 320.008,14.397 320.008,32.009C320.008,49.621 334.405,64.018 352.017,64.018L384.026,64.018L384.026,277.472L67.745,804.484C-4.69,925.208 51.239,1024 192.033,1024L832.008,1024C972.802,1024 1028.73,925.229 956.296,804.484L956.275,804.484ZM241.04,640.015L448.003,295.085L448.003,64.038L575.997,64.038L575.997,295.085L782.96,640.015L241.04,640.015Z" style="fill:rgb(35,31,30);fill-rule:nonzero;"/>
</svg>
