<svg viewBox="0 0 34 34" fill="currentColor" xmlns="http://www.w3.org/2000/svg">
<path d="M17.838 13.5786C15.5667 13.5786 13.7188 15.4265 13.7188 17.6979C13.7188 19.9693 15.5667 21.8172 17.838 21.8172C20.1095 21.8172 21.9574 19.9692 21.9574 17.6979C21.9574 15.4265 20.1095 13.5786 17.838 13.5786ZM17.838 20.2585C16.4261 20.2585 15.2774 19.1098 15.2774 17.6979C15.2774 16.2859 16.4261 15.1373 17.838 15.1373C19.2499 15.1373 20.3987 16.286 20.3987 17.6979C20.3987 19.1097 19.25 20.2585 17.838 20.2585Z" fill="currentColor" stroke="currentColor" stroke-width="0.75"/>
<path d="M32.8936 10.5757C33.1969 8.34632 32.8487 6.45007 31.8863 5.04939C32.0438 4.7017 32.1323 4.31632 32.1323 3.91045C32.1323 2.38277 30.8894 1.13989 29.3617 1.13989C28.3293 1.13989 27.4276 1.70795 26.951 2.54745C24.341 2.41702 21.1453 3.37608 17.8375 5.28701C12.1899 2.02308 7.07655 1.63102 4.42406 4.28445C3.27125 5.43726 2.67418 7.08676 2.67693 9.07957C1.69156 9.50463 1 10.4852 1 11.6247C1 13.1524 2.24287 14.3952 3.77056 14.3952C3.78662 14.3952 3.80243 14.3943 3.81843 14.394C4.24456 15.4777 4.78356 16.585 5.42655 17.6979C2.16262 23.3454 1.77062 28.4587 4.42393 31.1112C5.59449 32.2821 7.24368 32.8601 9.20686 32.86C11.6927 32.86 14.6819 31.9323 17.8374 30.1088C20.9931 31.9325 23.982 32.86 26.4681 32.86C28.4313 32.86 30.0809 32.2821 31.2516 31.1114C33.9048 28.4582 33.5121 23.3447 30.2473 17.6974C31.6833 15.2116 32.5967 12.7574 32.8936 10.5757ZM29.3617 2.69858C30.0299 2.69858 30.5736 3.24226 30.5736 3.91045C30.5736 4.57864 30.0299 5.12232 29.3617 5.12232C28.6935 5.12232 28.1498 4.57864 28.1498 3.91045C28.1498 3.24226 28.6934 2.69858 29.3617 2.69858ZM26.5979 4.09439C26.6929 5.53657 27.8958 6.68107 29.3617 6.68107C29.8924 6.68107 30.3885 6.53082 30.8103 6.27107C31.3872 7.31857 31.5737 8.71532 31.3491 10.3656C31.1081 12.1371 30.4064 14.1277 29.308 16.1796C28.0558 14.2804 26.5508 12.4469 24.8198 10.7157C23.0888 8.98469 21.2547 7.47938 19.3545 6.22607C22.0152 4.79932 24.528 4.05932 26.5979 4.09439ZM3.77056 12.8366C3.10237 12.8366 2.55868 12.2929 2.55868 11.6247C2.55868 10.9565 3.10237 10.4128 3.77056 10.4128C4.43874 10.4128 4.98243 10.9565 4.98243 11.6247C4.98249 12.2929 4.43881 12.8366 3.77056 12.8366ZM5.31099 13.9263C6.0523 13.4286 6.54118 12.5827 6.54118 11.6247C6.54118 10.2558 5.5428 9.11613 4.23612 8.894C4.26768 7.40894 4.70749 6.20538 5.52624 5.38657C7.51911 3.39314 11.6771 3.74364 16.3192 6.22688C14.4193 7.48001 12.5859 8.98506 10.8552 10.7157C9.12436 12.4466 7.61924 14.2802 6.36612 16.1802C5.95905 15.4198 5.60674 14.6664 5.31099 13.9263ZM5.52605 30.0091C3.53262 28.0163 3.88312 23.8582 6.36636 19.2162C7.61942 21.116 9.12448 22.9495 10.8552 24.6802C12.5859 26.4108 14.4193 27.9159 16.3192 29.169C11.677 31.6521 7.51911 32.0026 5.52605 30.0091ZM11.9574 23.578C10.1006 21.7212 8.51667 19.745 7.24361 17.6979C8.51655 15.6508 10.1005 13.6746 11.9574 11.8177C13.8142 9.96094 15.7904 8.37694 17.8375 7.10394C19.8846 8.377 21.8608 9.96094 23.7176 11.8177C25.575 13.6752 27.1588 15.6513 28.4307 17.6979C27.1588 19.7443 25.5751 21.7205 23.7176 23.578C21.8608 25.4348 19.8846 27.0188 17.8375 28.2918C15.7905 27.0188 13.8142 25.4348 11.9574 23.578ZM30.1494 30.0091C28.1559 32.0025 23.9978 31.6521 19.3557 29.169C21.2555 27.9159 23.089 26.4108 24.8197 24.6802C26.5509 22.949 28.0557 21.1155 29.3079 19.2164C31.7917 23.8581 32.1426 28.0161 30.1494 30.0091Z" fill="currentColor" stroke="currentColor" stroke-width="0.75"/>
</svg>
